<?xml version="1.0" encoding="utf-8"?>
<!-- Generator: Adobe Illustrator 21.0.0, SVG Export Plug-In . SVG Version: 6.00 Build 0)  -->
<svg xmlns="http://www.w3.org/2000/svg" xmlns:xlink="http://www.w3.org/1999/xlink" version="1.1" x="0px" y="0px" viewBox="0 0 100 100" style="enable-background:new 0 0 100 100;" xml:space="preserve" width="16px" height="16px">

<g id="wind_sock">
</g>
<g id="umbrella">
</g>
<g id="temperature">
</g>
<g id="snow_rain_night">
</g>
<g id="snow_rain_day">
</g>
<g id="windy_day">
</g>
<g id="windy_night">
</g>
<g id="storm_night">
</g>
<g id="clear_night">
</g>
<g id="snow_night">
</g>
<g id="snow_day">
</g>
<g id="snow_rain">
</g>
<g id="foggy_night">
</g>
<g id="cloudy_night">
</g>
<g id="rain">
</g>
<g id="storm">
</g>
<g id="fog">
</g>
<g id="wind">
</g>
<g id="cloudy">
</g>
<g id="sun">
</g>
<g id="explorer">
</g>
<g id="visio">
</g>
<g id="access">
</g>
<g id="note">
</g>
<g id="outlook">
</g>
<g id="pdf">
</g>
<g id="power_point">
</g>
<g id="exel">
</g>
<g id="word">
</g>
<g id="office">
</g>
<g id="bridge">
</g>
<g id="muse">
</g>
<g id="flash">
</g>
<g id="premiere">
</g>
<g id="after_effects">
</g>
<g id="dreamwever">
</g>
<g id="indesign">
</g>
<g id="lightroom">
</g>
<g id="illustrator">
</g>
<g id="photoshop">
</g>
<g id="presentation">
</g>
<g id="microphone">
</g>
<g id="globe">
</g>
<g id="password">
</g>
<g id="break_link">
</g>
<g id="link">
</g>
<g id="tap">
</g>
<g id="down">
</g>
<g id="top">
</g>
<g id="direction">
</g>
<g id="move">
</g>
<g id="click">
</g>
<g id="point">
</g>
<g id="like">
</g>
<g id="support">
</g>
<g id="wifi">
</g>
<g id="music">
</g>
<g id="more">
</g>
<g id="visible">
</g>
<g id="error">
</g>
<g id="list">
</g>
<g id="grid">
</g>
<g id="favorite">
</g>
<g id="exit">
</g>
<g id="power">
</g>
<g id="delete">
</g>
<g id="msg">
</g>
<g id="info">
</g>
<g id="help">
</g>
<g id="warning">
</g>
<g id="cassete">
</g>
<g id="piano">
</g>
<g id="speaker">
</g>
<g id="attention">
</g>
<g id="crown">
</g>
<g id="prize">
</g>
<g id="medal">
</g>
<g id="alarm">
</g>
<g id="stopper">
</g>
<g id="flag">
</g>
<g id="snapchat">
</g>
<g id="dribbble">
</g>
<g id="flickr">
</g>
<g id="youtube">
</g>
<g id="skype">
</g>
<g id="twitter">
</g>
<g id="instagram">
</g>
<g id="linkedin">
</g>
<g id="vimeo">
	<g>
		<g>
			<g>
				<path d="M69.654,81.654h-39c-6.6,0-12-5.4-12-12v-39c0-6.6,5.4-12,12-12h39c6.6,0,12,5.4,12,12v39      C81.654,76.254,76.254,81.654,69.654,81.654z" style="fill:#39C1D7;"/>
				<path d="M69.654,82.654h-39c-7.168,0-13-5.832-13-13v-39c0-7.168,5.832-13,13-13h39c7.168,0,13,5.832,13,13v39      C82.654,76.822,76.822,82.654,69.654,82.654z M30.654,19.654c-6.065,0-11,4.935-11,11v39c0,6.065,4.935,11,11,11h39      c6.065,0,11-4.935,11-11v-39c0-6.065-4.935-11-11-11H30.654z" style="fill:#1F212B;"/>
			</g>
			<g>
				<path d="M77.154,48.154v18.663c0,5.685-4.652,10.337-10.337,10.337H33.491c-5.685,0-10.337-4.652-10.337-10.337      V33.491c0-5.685,4.652-10.337,10.337-10.337h33.663" style="fill:#39C1D7;"/>
				<path d="M66.817,77.654H33.49c-5.976,0-10.837-4.861-10.837-10.837V33.49c0-5.976,4.861-10.837,10.837-10.837      h33.663c0.276,0,0.5,0.224,0.5,0.5s-0.224,0.5-0.5,0.5H33.49c-5.424,0-9.837,4.413-9.837,9.837v33.326      c0,5.424,4.413,9.837,9.837,9.837h33.326c5.424,0,9.837-4.413,9.837-9.837V48.154c0-0.276,0.224-0.5,0.5-0.5s0.5,0.224,0.5,0.5      v18.663C77.654,72.792,72.792,77.654,66.817,77.654z" style="fill:#1F212B;"/>
			</g>
			<g>
				<path d="M77.154,46.654c-0.276,0-0.5-0.224-0.5-0.5v-4c0-0.276,0.224-0.5,0.5-0.5s0.5,0.224,0.5,0.5v4      C77.654,46.43,77.43,46.654,77.154,46.654z" style="fill:#1F212B;"/>
			</g>
			<g>
				<path d="M77.154,40.654c-0.276,0-0.5-0.224-0.5-0.5v-2c0-0.276,0.224-0.5,0.5-0.5s0.5,0.224,0.5,0.5v2      C77.654,40.43,77.43,40.654,77.154,40.654z" style="fill:#1F212B;"/>
			</g>
		</g>
		<g>
			<g>
				<g>
					<path id="Vimeo_1_" d="M61.832,35.354c-4.652-0.156-7.802,2.458-9.444,7.833c0.848-0.35,1.672-0.529,2.482-0.529       c1.696,0,2.45,0.949,2.248,2.863c-0.101,1.159-0.848,2.839-2.248,5.049c-1.4,2.209-2.45,3.314-3.151,3.314       c-0.902,0-1.727-1.711-2.482-5.119c-0.249-1.003-0.7-3.563-1.346-7.686c-0.607-3.812-2.201-5.601-4.8-5.344       c-1.097,0.093-2.746,1.097-4.947,3.003c-1.602,1.455-3.228,2.917-4.877,4.372l1.571,2.03c1.501-1.058,2.38-1.579,2.629-1.579       c1.151,0,2.225,1.805,3.228,5.422c0.895,3.314,1.805,6.628,2.699,9.942c1.346,3.617,2.995,5.422,4.947,5.422       c3.151,0,7.001-2.964,11.552-8.884c4.395-5.671,6.667-10.144,6.822-13.403C66.912,37.687,65.286,35.447,61.832,35.354z" style="fill:#FDFCEE;"/>
					<path d="M48.343,64.846c-2.175,0-3.997-1.934-5.416-5.748c-0.461-1.701-0.912-3.357-1.363-5.014       c-0.451-1.658-0.902-3.315-1.35-4.972c-1.265-4.56-2.342-5.052-2.746-5.052c-0.021,0.011-0.447,0.154-2.341,1.488       c-0.22,0.154-0.521,0.109-0.684-0.103l-1.571-2.03c-0.161-0.208-0.133-0.507,0.065-0.681c1.647-1.453,3.271-2.914,4.872-4.367       c2.317-2.006,4.029-3.028,5.241-3.131c2.885-0.296,4.682,1.655,5.336,5.764c0.626,3.998,1.088,6.641,1.337,7.644       c1,4.511,1.838,4.739,1.996,4.739c0.129,0,0.87-0.148,2.729-3.082c1.348-2.127,2.079-3.75,2.172-4.824       c0.092-0.869-0.028-1.49-0.355-1.853c-0.278-0.31-0.748-0.466-1.395-0.466c-0.741,0-1.49,0.161-2.291,0.492       c-0.177,0.075-0.384,0.038-0.527-0.092c-0.143-0.13-0.198-0.331-0.142-0.516c1.708-5.596,5.079-8.337,9.937-8.188       c1.652,0.045,2.948,0.56,3.852,1.531c1.122,1.205,1.632,3.122,1.518,5.696c-0.16,3.36-2.49,7.964-6.927,13.688       C55.595,61.876,51.687,64.846,48.343,64.846z M37.468,43.06c1.436,0,2.614,1.839,3.71,5.788c0.448,1.66,0.899,3.317,1.35,4.973       c0.451,1.658,0.902,3.315,1.35,4.972c1.244,3.337,2.75,5.052,4.464,5.052c2.97,0,6.724-2.923,11.155-8.688       c4.309-5.56,6.569-9.974,6.719-13.123c0.102-2.295-0.319-3.968-1.251-4.969c-0.725-0.778-1.754-1.175-3.148-1.212       c-0.001,0-0.002,0-0.003,0c-4.168-0.127-6.994,2.001-8.635,6.537c0.574-0.154,1.14-0.232,1.69-0.232       c0.943,0,1.662,0.268,2.138,0.797c0.525,0.583,0.729,1.464,0.607,2.618c-0.108,1.244-0.868,2.968-2.323,5.263       c-1.992,3.143-2.956,3.546-3.573,3.546c-1.209,0-2.125-1.7-2.97-5.511c-0.256-1.033-0.712-3.634-1.352-7.716       c-0.563-3.54-1.965-5.15-4.256-4.924c-0.681,0.058-2.037,0.604-4.669,2.883c-1.482,1.346-2.992,2.705-4.522,4.058l0.993,1.283       C36.961,43.06,37.276,43.06,37.468,43.06z" style="fill:#1F212B;"/>
				</g>
			</g>
		</g>
	</g>
</g>
<g id="tumbler">
</g>
<g id="google">
</g>
<g id="whatsapp">
</g>
<g id="facebook">
</g>
<g id="curve">
</g>
<g id="paint_bucket">
</g>
<g id="roller">
</g>
<g id="switch">
</g>
<g id="scissors">
</g>
<g id="picker">
</g>
<g id="brush">
</g>
</svg>
